<svg fill="none" viewBox="0 0 20 20" xmlns="http://www.w3.org/2000/svg"><rect x="3.333" y="16.666" width="1.667" height="13.333" rx=".833" transform="rotate(-90 3.333 16.666)" fill="#636C78"/><path d="M7.5 3.611A1.11 1.11 0 018.611 2.5h2.778A1.11 1.11 0 0112.5 3.611v8.611c0 .614-.498 1.111-1.111 1.111H8.61a1.111 1.111 0 01-1.111-1.11V3.61z" fill="#fff"/><path fill-rule="evenodd" clip-rule="evenodd" d="M8.944 3.944v7.945h2.112V3.944H8.944zM8.611 2.5A1.11 1.11 0 007.5 3.611v8.611a1.11 1.11 0 001.111 1.111h2.778a1.11 1.11 0 001.111-1.11V3.61c0-.614-.498-1.111-1.111-1.111H8.61z" fill="#000"/></svg>