<svg fill="none" viewBox="0 0 20 20" xmlns="http://www.w3.org/2000/svg"><g mask="url(#hfa)"><path fill-rule="evenodd" clip-rule="evenodd" d="M4.929 9.432l-2.775 1.942a.417.417 0 000 .683l7.607 5.325c.143.1.334.1.478 0l7.607-5.325a.415.415 0 000-.683L15.07 9.432l-1.384 1.065 1.74 1.219L10 15.514l-5.428-3.798 1.741-1.219L4.93 9.432z" fill="#636C78"/><path d="M9.167 5h1.666v6.667a.833.833 0 01-1.666 0V5z" fill="#33383E"/><path fill-rule="evenodd" clip-rule="evenodd" d="M10 5.345l2.327 2.328a.833.833 0 101.179-1.179l-2.77-2.77a1.042 1.042 0 00-1.473 0l-2.769 2.77a.833.833 0 101.179 1.179L10 5.345z" fill="#33383E"/></g></svg>