<svg fill="none" viewBox="0 0 20 20" xmlns="http://www.w3.org/2000/svg"><g mask="url(#hda)"><path fill-rule="evenodd" clip-rule="evenodd" d="M15.071 10.568l2.775-1.942a.416.416 0 000-.683l-7.607-5.325a.417.417 0 00-.478 0L2.154 7.943a.417.417 0 000 .683l2.775 1.942 1.385-1.065-1.74-1.219L10 4.486l5.428 3.798-1.741 1.219 1.384 1.065z" fill="#636C78"/><path d="M10.833 15H9.167V8.333a.833.833 0 111.666 0V15z" fill="#33383E"/><path fill-rule="evenodd" clip-rule="evenodd" d="M10 14.655l-2.327-2.328a.833.833 0 10-1.179 1.179l2.77 2.77a1.042 1.042 0 001.473 0l2.769-2.77a.833.833 0 10-1.179-1.179L10 14.655z" fill="#33383E"/></g></svg>