<svg fill="none" viewBox="0 0 20 20" xmlns="http://www.w3.org/2000/svg"><path d="M4.879 13.227l6.954-6.953 2.121 2.12L7 15.35c-.296.295-.651.5-.97.56l-1.592.299c-.298.056-.474-.12-.418-.419l.298-1.591c.06-.32.265-.675.56-.97z" stroke="#606770" stroke-width="1.5"/><path fill-rule="evenodd" clip-rule="evenodd" d="M15.079 7.912l.38 2.345a.5.5 0 01-.14.433l-.35.35a.5.5 0 01-.707 0L9.077 5.854a.5.5 0 010-.707l.353-.353a.5.5 0 01.426-.141l2.261.328 2.428-2.428A2.083 2.083 0 0117.492 5.5l-2.413 2.412z" fill="#606770"/></svg>