<svg viewBox="0 0 18 18" xmlns="http://www.w3.org/2000/svg"><path fill-rule="evenodd" clip-rule="evenodd" d="M14.216 5.413a14.496 14.496 0 00-10.432 0l.998 7.981a13.637 13.637 0 018.436 0l.998-7.981zM3.121 4.24a1.1 1.1 0 00-.682 1.157l1.094 8.75a.854.854 0 001.147.694 12.302 12.302 0 018.64 0 .854.854 0 001.148-.694l1.094-8.75a1.1 1.1 0 00-.683-1.157 15.83 15.83 0 00-11.758 0z"/><path fill-rule="evenodd" clip-rule="evenodd" d="M6.334 13.58L6 4.58l1.333-.05.333 9-1.332.05zm4-9.382L10 13.532l1.332.047.333-9.333-1.332-.048z"/><path fill-rule="evenodd" clip-rule="evenodd" d="M14.333 8.719a18.618 18.618 0 00-10.666 0v1.396a17.285 17.285 0 0110.666 0V8.72z"/></svg>